<svg id="Layer_1" data-name="Layer 1" xmlns="http://www.w3.org/2000/svg" xmlns:xlink="http://www.w3.org/1999/xlink" viewBox="0 0 600 200"><defs><style>.cls-1{fill:none;}.cls-2{clip-path:url(#clip-path);}.cls-3{fill:#e0e622;}.cls-4{fill:#7b868c;}</style><clipPath id="clip-path"><rect class="cls-1" x="15.47" y="27.21" width="568.95" height="145.83"/></clipPath></defs><title>logo-en</title><g class="cls-2"><path class="cls-3" d="M22,30.84a2.86,2.86,0,0,0-2.86,2.86v67.69A2.87,2.87,0,0,0,22,104.25h47a2.86,2.86,0,0,0,2.85-2.86V93.6a2.86,2.86,0,0,0-2.85-2.85H39.72a6.48,6.48,0,0,1-6.48-6.47V33.7a2.85,2.85,0,0,0-2.85-2.86Zm47,77H22a6.49,6.49,0,0,1-6.48-6.48V33.7A6.48,6.48,0,0,1,22,27.22h8.44a6.48,6.48,0,0,1,6.47,6.48V84.28a2.86,2.86,0,0,0,2.86,2.85H68.91a6.47,6.47,0,0,1,6.47,6.47v7.79a6.48,6.48,0,0,1-6.47,6.48"/><path class="cls-3" d="M30.84,30.84A2.86,2.86,0,0,0,28,33.7V71.76a2.86,2.86,0,0,0,2.86,2.86H86.68a2.87,2.87,0,0,0,2.86-2.86V33.7a2.87,2.87,0,0,0-2.86-2.86Zm55.84,47.4H30.84a6.48,6.48,0,0,1-6.48-6.48V33.7a6.49,6.49,0,0,1,6.48-6.49H86.68a6.49,6.49,0,0,1,6.48,6.49V71.76a6.49,6.49,0,0,1-6.48,6.48"/><path class="cls-3" d="M22,155.49a2.86,2.86,0,0,0-2.86,2.86v8.21A2.87,2.87,0,0,0,22,169.42H63a2.86,2.86,0,0,0,2.85-2.86V130.27A2.82,2.82,0,0,0,63,127.45l-23,.18a6.48,6.48,0,0,1-6.48-6.43v-1.45a6.47,6.47,0,0,1,6.44-6.49H63a2.85,2.85,0,0,0,2.85-2.84V99.85A2.86,2.86,0,0,0,63,97H22a2.87,2.87,0,0,0-2.86,2.86v38.63A2.87,2.87,0,0,0,22,141.35H41.4a6.47,6.47,0,0,1,6.47,6.47V149a6.47,6.47,0,0,1-6.47,6.47ZM63,173H22a6.49,6.49,0,0,1-6.48-6.48v-8.21A6.48,6.48,0,0,1,22,151.87H41.4A2.85,2.85,0,0,0,44.25,149v-1.2A2.86,2.86,0,0,0,41.4,145H22a6.48,6.48,0,0,1-6.48-6.48V99.85A6.5,6.5,0,0,1,22,93.37H63a6.5,6.5,0,0,1,6.48,6.48v10.57A6.5,6.5,0,0,1,63,116.89h-23a2.82,2.82,0,0,0-2.82,2.84v1.45A2.87,2.87,0,0,0,40,124l23-.18a6.45,6.45,0,0,1,6.45,6.44v36.29A6.5,6.5,0,0,1,63,173"/><path class="cls-3" d="M119.71,111.9a2.85,2.85,0,0,0-2.85,2.84v12.34a2.85,2.85,0,0,0,2.85,2.84h35.11a2.85,2.85,0,0,0,2.85-2.84v-47a2.81,2.81,0,0,0-2.8-2.81l-19.28.21a6.46,6.46,0,0,1-6.44-6.42l0-4a6.45,6.45,0,0,1,6.45-6.49h19.24a2.85,2.85,0,0,0,2.85-2.85V42.58a2.86,2.86,0,0,0-2.85-2.85H119.71a2.85,2.85,0,0,0-2.85,2.85V92.44a2.86,2.86,0,0,0,2.85,2.85h16.06a6.48,6.48,0,0,1,6.48,6.48v3.66a6.49,6.49,0,0,1-6.48,6.47Zm35.11,21.64H119.71a6.47,6.47,0,0,1-6.48-6.46V114.74a6.47,6.47,0,0,1,6.48-6.46h16.06a2.86,2.86,0,0,0,2.85-2.85v-3.66a2.86,2.86,0,0,0-2.85-2.86H119.71a6.48,6.48,0,0,1-6.48-6.47V42.58a6.48,6.48,0,0,1,6.48-6.47h35.11a6.48,6.48,0,0,1,6.47,6.47V57.8a6.49,6.49,0,0,1-6.47,6.48H135.58a2.82,2.82,0,0,0-2.83,2.84l0,4a2.83,2.83,0,0,0,2.82,2.81l19.28-.21a6.43,6.43,0,0,1,6.42,6.43v47a6.48,6.48,0,0,1-6.47,6.46"/><path class="cls-3" d="M135.59,153.54c1.9,0,3.82,1.41,3.82,4.56v8.46a2.87,2.87,0,0,0,2.86,2.86h12.55a2.86,2.86,0,0,0,2.85-2.86V107.75a2.86,2.86,0,0,0-2.85-2.86H85.14a2.87,2.87,0,0,0-2.86,2.86v58.81a2.87,2.87,0,0,0,2.86,2.86H96.48a2.86,2.86,0,0,0,2.85-2.86v-8.45c0-3.15,1.93-4.55,3.82-4.55a5.12,5.12,0,0,1,2.88,1l10.46,6.93a5.36,5.36,0,0,0,2.88.77,5.42,5.42,0,0,0,2.89-.77l10.46-7a5.26,5.26,0,0,1,2.87-1M154.82,173H142.27a6.49,6.49,0,0,1-6.48-6.48V158.1a1.64,1.64,0,0,0-.19-.94h0a1.83,1.83,0,0,0-.87.37l-10.46,6.95a9.39,9.39,0,0,1-9.77,0L104,157.54a1.88,1.88,0,0,0-.88-.36h0a1.72,1.72,0,0,0-.19.93v8.45A6.48,6.48,0,0,1,96.48,173H85.14a6.49,6.49,0,0,1-6.48-6.48V107.75a6.48,6.48,0,0,1,6.48-6.47h69.68a6.48,6.48,0,0,1,6.47,6.47v58.81a6.49,6.49,0,0,1-6.47,6.48"/><path class="cls-3" d="M48.61,45.66a2.85,2.85,0,0,0-2.86,2.84V57a2.86,2.86,0,0,0,2.86,2.86h20.3A2.86,2.86,0,0,0,71.76,57V48.5a2.85,2.85,0,0,0-2.85-2.84Zm20.3,17.77H48.61A6.49,6.49,0,0,1,42.13,57V48.5A6.49,6.49,0,0,1,48.61,42h20.3a6.48,6.48,0,0,1,6.47,6.47V57a6.48,6.48,0,0,1-6.47,6.48"/><path class="cls-3" d="M96,30.84a2.85,2.85,0,0,0-2.85,2.86V92.5A2.85,2.85,0,0,0,96,95.36h58.81a2.13,2.13,0,0,0,.8-.12,2,2,0,0,0-.39-.72l-19.95-26.6a3.88,3.88,0,0,1,3.31-6.63h16.23a2.86,2.86,0,0,0,2.85-2.86V33.7a2.86,2.86,0,0,0-2.85-2.86ZM154.82,99H96a6.49,6.49,0,0,1-6.48-6.48V33.7A6.49,6.49,0,0,1,96,27.21h58.81a6.49,6.49,0,0,1,6.47,6.49V58.43a6.49,6.49,0,0,1-6.47,6.48H138.59a1.9,1.9,0,0,0-.8.12,2,2,0,0,0,.39.71l19.95,26.61A3.88,3.88,0,0,1,154.82,99"/><path class="cls-3" d="M63.42,39.73a2.86,2.86,0,0,0-2.85,2.85v41a2.86,2.86,0,0,0,2.85,2.85h55.84a2.86,2.86,0,0,0,2.86-2.85v-41a2.86,2.86,0,0,0-2.86-2.85h-11a2.89,2.89,0,0,0-2.89,2.87l-.15,23.26a6.53,6.53,0,0,1-6.51,6.46H84a6.54,6.54,0,0,1-6.51-6.46L77.34,42.6a2.89,2.89,0,0,0-2.88-2.87Zm55.84,50.36H63.42A6.49,6.49,0,0,1,57,83.62v-41a6.48,6.48,0,0,1,6.47-6.47h11A6.53,6.53,0,0,1,81,42.57l.14,23.26A2.9,2.9,0,0,0,84,68.69H98.68a2.89,2.89,0,0,0,2.89-2.86l.15-23.26a6.53,6.53,0,0,1,6.51-6.46h11a6.48,6.48,0,0,1,6.48,6.47v41a6.48,6.48,0,0,1-6.48,6.47"/><path class="cls-3" d="M36.76,116.75a2.87,2.87,0,0,0-2.86,2.86v47a2.87,2.87,0,0,0,2.86,2.86H86.68a2.87,2.87,0,0,0,2.86-2.86V158.3a2.88,2.88,0,0,0-2.87-2.87l-29-.15a6.52,6.52,0,0,1-6.47-6.49V137.38a6.48,6.48,0,0,1,6.48-6.47h29a2.87,2.87,0,0,0,2.86-2.86v-8.44a2.87,2.87,0,0,0-2.86-2.86ZM86.68,173H36.76a6.49,6.49,0,0,1-6.48-6.48V119.61a6.49,6.49,0,0,1,6.48-6.48H86.68a6.49,6.49,0,0,1,6.48,6.48v8.44a6.48,6.48,0,0,1-6.48,6.47h-29a2.86,2.86,0,0,0-2.85,2.86v11.41a2.88,2.88,0,0,0,2.86,2.88l29,.14a6.51,6.51,0,0,1,6.47,6.49v8.26A6.49,6.49,0,0,1,86.68,173"/><path class="cls-4" d="M201.1,133.72h10.42V123.31H201.1V60.81H190.68v62.5c0,10.41,10.42,10.41,10.42,10.41"/><path class="cls-4" d="M294.84,60.81H284.43S274,60.81,274,71.23v62.49h10.42V71.23h10.41Z"/><path class="cls-4" d="M336.51,123.31H315.68V60.81H305.26v62.5c0,10.41,10.42,10.41,10.42,10.41h20.83s10.42,0,10.42-10.41V60.81H336.51Z"/><path class="cls-4" d="M388.59,92.06H367.76V71.23h20.83V60.81H367.76s-10.42,0-10.42,10.42V92.06c0,10.42,10.42,10.42,10.42,10.42h20.83v20.83H357.34v10.41h31.25c10.42,0,10.42-10.41,10.42-10.41V102.48c0-10.42-10.42-10.42-10.42-10.42"/><path class="cls-4" d="M469.84,123.31V102.48s0-10.42-10.42-10.42H438.59V71.23h20.83V60.81H438.59c-10.42,0-10.42,10.42-10.42,10.42V92.06s0,10.42,10.42,10.42h20.83v20.83H428.17v10.41h31.25c10.42,0,10.42-10.41,10.42-10.41"/><path class="cls-4" d="M480.25,71.23v52.08c0,10.41,10.42,10.41,10.42,10.41h10.42V123.31H490.67V71.23h10.42V60.81H490.67s-10.42,0-10.42,10.42"/><path class="cls-4" d="M574,60.81H521.92s-10.41,0-10.41,10.42v62.49h10.41V71.23h20.83v62.49h10.42V71.23H574v62.49h10.42V71.23c0-10.42-10.42-10.42-10.42-10.42"/><path class="cls-4" d="M263.6,71.23c0-10.42-10.42-10.42-10.42-10.42H232.35s-10.42,0-10.42,10.42v52.08c0,10.41,10.42,10.41,10.42,10.41h20.83s10.42,0,10.42-10.41Zm-10.42,52.08H232.35V71.23h20.83Z"/><rect class="cls-4" x="273.83" y="152.93" width="2.04" height="19.12"/><polygon class="cls-4" points="293.76 168.21 283.61 152.93 281.68 152.93 281.68 172.05 283.72 172.05 283.72 156.71 293.87 172.05 295.81 172.05 295.81 152.93 293.76 152.93 293.76 168.21"/><polygon class="cls-4" points="315.07 152.93 312.57 152.93 303.65 163.91 303.65 152.93 301.6 152.93 301.6 172.05 303.65 172.05 303.65 166.71 307.68 161.87 313.51 172.05 315.92 172.05 309.05 160.31 315.07 152.93"/><polygon class="cls-4" points="265.99 161.5 256.9 161.5 256.9 152.93 254.86 152.93 254.86 172.05 256.9 172.05 256.9 163.32 265.99 163.32 265.99 172.05 268.03 172.05 268.03 152.93 265.99 152.93 265.99 161.5"/><polygon class="cls-4" points="350 168.34 345.78 152.93 343.95 152.93 339.74 168.34 336.01 152.93 333.83 152.93 338.72 172.05 340.63 172.05 344.87 156.74 349.11 172.05 351.02 172.05 355.91 152.93 353.74 152.93 350 168.34"/><polygon class="cls-4" points="207.46 168.34 203.25 152.93 201.42 152.93 197.21 168.34 193.47 152.93 191.29 152.93 196.19 172.05 198.09 172.05 202.34 156.74 206.58 172.05 208.48 172.05 213.38 152.93 211.2 152.93 207.46 168.34"/><polygon class="cls-4" points="237.91 154.75 243.45 154.75 243.45 172.05 245.49 172.05 245.49 154.75 251.03 154.75 251.03 152.93 237.91 152.93 237.91 154.75"/><polygon class="cls-4" points="216.84 172.05 228.71 172.05 228.71 170.23 218.88 170.23 218.88 163.32 227.26 163.32 227.26 161.5 218.88 161.5 218.88 154.75 228.71 154.75 228.71 152.93 216.84 152.93 216.84 172.05"/><path class="cls-4" d="M410.56,152.77a6.78,6.78,0,0,0-4.89,2c-1.79,1.8-1.79,3.68-1.79,7.74s0,5.94,1.79,7.74a7,7,0,0,0,9.78,0c1.81-1.8,1.81-3.69,1.81-7.74s0-5.94-1.81-7.74a6.76,6.76,0,0,0-4.89-2M413.87,169a4.67,4.67,0,0,1-6.61,0c-1.21-1.24-1.35-2.53-1.35-6.53s.14-5.29,1.35-6.53a4.67,4.67,0,0,1,6.61,0c1.2,1.24,1.34,2.53,1.34,6.53s-.14,5.29-1.34,6.53"/><polygon class="cls-4" points="437 172.05 448.87 172.05 448.87 170.23 439.04 170.23 439.04 163.32 447.42 163.32 447.42 161.5 439.04 161.5 439.04 154.75 448.87 154.75 448.87 152.93 437 152.93 437 172.05"/><polygon class="cls-4" points="390.69 166.49 384.45 152.93 382.41 152.93 382.41 172.05 384.45 172.05 384.45 157.52 389.77 169.05 391.51 169.05 396.76 157.52 396.76 172.05 398.8 172.05 398.8 152.93 396.76 152.93 390.69 166.49"/><polygon class="cls-4" points="426.63 168.4 421.65 152.93 419.5 152.93 425.79 172.05 427.46 172.05 433.74 152.93 431.59 152.93 426.63 168.4"/><polygon class="cls-4" points="359.38 172.05 371.25 172.05 371.25 170.23 361.42 170.23 361.42 163.32 369.8 163.32 369.8 161.5 361.42 161.5 361.42 154.75 371.25 154.75 371.25 152.93 359.38 152.93 359.38 172.05"/><rect class="cls-4" x="320.95" y="161.66" width="8.3" height="1.66"/></g></svg>