<svg id="Layer_1" data-name="Layer 1" xmlns="http://www.w3.org/2000/svg" viewBox="0 0 600 200"><defs><style>.cls-1{fill:#7b868c;}.cls-2{fill:#e0e622;}</style></defs><title>logo-ru</title><path class="cls-1" d="M198.47,161.78c0,7.95-1.7,9.53-4.06,9.53h-.51v1.82h1c3.65,0,5.58-2.68,5.58-10.74v-6.55H207v17.29h2V154H198.47Z"/><path class="cls-1" d="M220.49,153.85a6.82,6.82,0,0,0-4.89,2c-1.64,1.64-1.8,4-1.8,6.26v1.48c0,3.81,0,6,1.8,7.73a7,7,0,0,0,9.77,0c1.75-1.75,1.8-3.92,1.8-7.73v-1.32c0-2.34-.13-4.76-1.8-6.42a6.78,6.78,0,0,0-4.88-2m4.64,10.66c0,2.21,0,4.28-1.34,5.59a4.67,4.67,0,0,1-6.61,0c-1.23-1.23-1.34-3.11-1.34-5.18V163c0-2.63,0-4.62,1.34-6a4.67,4.67,0,0,1,6.61,0c1.26,1.26,1.34,3.25,1.34,5.5Z"/><path class="cls-1" d="M239.1,154H232v19.12h2v-7.86h5.08c3.54,0,5.9-2.26,5.9-5.64s-2.36-5.62-5.9-5.62m-.19,9.43H234v-7.6h4.89c2.55,0,4.05,1.4,4.05,3.79s-1.5,3.81-4.05,3.81"/><path class="cls-1" d="M253.73,165.32,248.57,154H246.4l6.31,13.59-.78,1.81c-.56,1.31-1.2,1.9-2.52,1.9H248.2v1.83h1.67c1.9,0,3-1.24,3.75-3L260.55,154h-2.17Z"/><path class="cls-1" d="M269.25,155.68a4.52,4.52,0,0,1,4.54,3.87h2.1a6.46,6.46,0,0,0-6.64-5.7,6.78,6.78,0,0,0-4.88,2c-1.81,1.8-1.81,3.68-1.81,7.74s0,5.93,1.81,7.73a6.78,6.78,0,0,0,4.88,2,6.46,6.46,0,0,0,6.64-5.7h-2a4.69,4.69,0,0,1-7.9,2.53c-1.21-1.24-1.34-2.55-1.34-6.55s.13-5.32,1.34-6.56a4.59,4.59,0,0,1,3.3-1.34"/><path class="cls-1" d="M292.7,153.85a6.46,6.46,0,0,0-6.64,5.69h2.07a4.55,4.55,0,0,1,4.57-3.89A4.65,4.65,0,0,1,296,157c1.1,1.13,1.31,2.36,1.31,5.59h-7.22v1.8h7.25c0,3.33-.21,4.59-1.34,5.72a4.7,4.7,0,0,1-7.95-2.53h-2a6.48,6.48,0,0,0,6.64,5.7,6.82,6.82,0,0,0,4.89-2c1.79-1.8,1.79-3.68,1.79-7.73s0-5.94-1.79-7.74a6.82,6.82,0,0,0-4.89-2"/><path class="cls-1" d="M310.15,155.68a4.52,4.52,0,0,1,4.54,3.87h2.1a6.46,6.46,0,0,0-6.64-5.7,6.78,6.78,0,0,0-4.88,2c-1.81,1.8-1.81,3.68-1.81,7.74s0,5.93,1.81,7.73a6.78,6.78,0,0,0,4.88,2,6.46,6.46,0,0,0,6.64-5.7h-2a4.69,4.69,0,0,1-7.9,2.53c-1.21-1.24-1.34-2.55-1.34-6.55s.13-5.32,1.34-6.56a4.59,4.59,0,0,1,3.3-1.34"/><path class="cls-1" d="M333.94,155.68a4.51,4.51,0,0,1,4.54,3.87h2.1a6.46,6.46,0,0,0-6.64-5.7,6.78,6.78,0,0,0-4.88,2c-1.8,1.8-1.8,3.68-1.8,7.74s0,5.93,1.8,7.73a6.78,6.78,0,0,0,4.88,2,6.46,6.46,0,0,0,6.64-5.7h-2a4.69,4.69,0,0,1-7.9,2.53c-1.21-1.24-1.34-2.55-1.34-6.55s.13-5.32,1.34-6.56a4.59,4.59,0,0,1,3.3-1.34"/><polygon class="cls-1" points="347.13 169.59 347.13 154.01 345.09 154.01 345.09 173.13 347.02 173.13 356.74 157.53 356.74 173.13 358.78 173.13 358.78 154.01 356.85 154.01 347.13 169.59"/><path class="cls-1" d="M376.61,153.85a6.46,6.46,0,0,0-6.63,5.69h2.07a4.54,4.54,0,0,1,4.56-3.89A4.66,4.66,0,0,1,380,157c1.1,1.13,1.31,2.36,1.31,5.59H374v1.8h7.25c0,3.33-.22,4.59-1.34,5.72a4.66,4.66,0,0,1-3.34,1.37,4.6,4.6,0,0,1-4.61-3.9h-2a6.48,6.48,0,0,0,6.63,5.7,6.83,6.83,0,0,0,4.9-2c1.79-1.8,1.79-3.68,1.79-7.73s0-5.94-1.79-7.74a6.83,6.83,0,0,0-4.9-2"/><polygon class="cls-1" points="396.38 167.58 390.15 154.01 388.11 154.01 388.11 173.13 390.15 173.13 390.15 158.61 395.47 170.13 397.21 170.13 402.45 158.61 402.45 173.13 404.49 173.13 404.49 154.01 402.45 154.01 396.38 167.58"/><path class="cls-2" d="M23,30.86a2.87,2.87,0,0,0-2.86,2.86v67.69A2.87,2.87,0,0,0,23,104.27h47a2.86,2.86,0,0,0,2.85-2.86V93.62a2.85,2.85,0,0,0-2.85-2.84H40.72a6.48,6.48,0,0,1-6.47-6.48V33.72a2.86,2.86,0,0,0-2.86-2.86Zm47,77H23a6.49,6.49,0,0,1-6.48-6.48V33.72A6.48,6.48,0,0,1,23,27.24h8.44a6.48,6.48,0,0,1,6.48,6.48V84.3a2.86,2.86,0,0,0,2.85,2.85H69.91a6.48,6.48,0,0,1,6.47,6.47v7.79a6.48,6.48,0,0,1-6.47,6.48"/><path class="cls-2" d="M31.84,30.86A2.86,2.86,0,0,0,29,33.72V71.78a2.86,2.86,0,0,0,2.86,2.86H87.68a2.86,2.86,0,0,0,2.86-2.86V33.72a2.86,2.86,0,0,0-2.86-2.86Zm55.84,47.4H31.84a6.49,6.49,0,0,1-6.48-6.48V33.72a6.48,6.48,0,0,1,6.48-6.48H87.68a6.48,6.48,0,0,1,6.48,6.48V71.78a6.49,6.49,0,0,1-6.48,6.48"/><path class="cls-2" d="M23,155.52a2.86,2.86,0,0,0-2.86,2.85v8.22A2.87,2.87,0,0,0,23,169.44H64a2.86,2.86,0,0,0,2.85-2.85V130.3A2.82,2.82,0,0,0,64,127.47l-23,.18a6.48,6.48,0,0,1-6.48-6.43v-1.45a6.45,6.45,0,0,1,6.44-6.48H64a2.86,2.86,0,0,0,2.85-2.85V99.87A2.86,2.86,0,0,0,64,97H23a2.86,2.86,0,0,0-2.86,2.85v38.64A2.87,2.87,0,0,0,23,141.37H42.4a6.47,6.47,0,0,1,6.47,6.47V149a6.48,6.48,0,0,1-6.47,6.48Zm41,17.54H23a6.48,6.48,0,0,1-6.48-6.47v-8.22A6.48,6.48,0,0,1,23,151.9H42.4A2.86,2.86,0,0,0,45.25,149v-1.2A2.86,2.86,0,0,0,42.4,145H23a6.49,6.49,0,0,1-6.48-6.48V99.87A6.5,6.5,0,0,1,23,93.39H64a6.5,6.5,0,0,1,6.48,6.48v10.57A6.48,6.48,0,0,1,64,116.91h-23a2.83,2.83,0,0,0-2.82,2.84v1.45A2.86,2.86,0,0,0,41,124l23-.18a6.45,6.45,0,0,1,6.44,6.45v36.29A6.48,6.48,0,0,1,64,173.06"/><path class="cls-2" d="M120.71,111.92a2.85,2.85,0,0,0-2.85,2.85V127.1a2.85,2.85,0,0,0,2.85,2.85h35.11a2.86,2.86,0,0,0,2.85-2.85v-47a2.8,2.8,0,0,0-2.8-2.81l-19.27.22a6.47,6.47,0,0,1-6.45-6.42l0-4a6.47,6.47,0,0,1,6.45-6.49h19.24a2.85,2.85,0,0,0,2.85-2.85V42.6a2.86,2.86,0,0,0-2.85-2.85H120.71a2.85,2.85,0,0,0-2.85,2.85V92.46a2.86,2.86,0,0,0,2.85,2.85h16.06a6.48,6.48,0,0,1,6.48,6.48v3.66a6.48,6.48,0,0,1-6.48,6.47Zm35.11,21.65H120.71a6.47,6.47,0,0,1-6.47-6.47V114.77a6.48,6.48,0,0,1,6.47-6.47h16.06a2.86,2.86,0,0,0,2.85-2.85v-3.66a2.86,2.86,0,0,0-2.85-2.86H120.71a6.47,6.47,0,0,1-6.47-6.47V42.6a6.47,6.47,0,0,1,6.47-6.47h35.11a6.47,6.47,0,0,1,6.47,6.47V57.82a6.48,6.48,0,0,1-6.47,6.48H136.58a2.77,2.77,0,0,0-2,.83,2.83,2.83,0,0,0-.83,2l0,4a2.84,2.84,0,0,0,2.83,2.82l19.27-.22a6.43,6.43,0,0,1,6.42,6.43v47a6.47,6.47,0,0,1-6.47,6.47"/><path class="cls-2" d="M136.59,153.57c1.9,0,3.82,1.41,3.82,4.55v8.47a2.87,2.87,0,0,0,2.86,2.85h12.55a2.86,2.86,0,0,0,2.85-2.85V107.77a2.86,2.86,0,0,0-2.85-2.85H86.14a2.86,2.86,0,0,0-2.86,2.85v58.82a2.87,2.87,0,0,0,2.86,2.85H97.48a2.86,2.86,0,0,0,2.85-2.85v-8.46c0-3.14,1.93-4.54,3.83-4.54a5.1,5.1,0,0,1,2.87,1l10.46,6.93a5.79,5.79,0,0,0,5.77,0l10.46-6.95a5.18,5.18,0,0,1,2.87-1m19.23,19.49H143.27a6.48,6.48,0,0,1-6.48-6.47v-8.47a1.64,1.64,0,0,0-.19-.94h0a1.87,1.87,0,0,0-.87.37l-10.46,6.95a9.39,9.39,0,0,1-9.77,0L105,157.56a1.89,1.89,0,0,0-.87-.36h0a1.63,1.63,0,0,0-.19.93v8.46a6.48,6.48,0,0,1-6.48,6.47H86.14a6.47,6.47,0,0,1-6.47-6.47V107.77a6.48,6.48,0,0,1,6.47-6.47h69.68a6.48,6.48,0,0,1,6.47,6.47v58.82a6.47,6.47,0,0,1-6.47,6.47"/><path class="cls-2" d="M49.61,45.68a2.84,2.84,0,0,0-2.85,2.84V57a2.85,2.85,0,0,0,2.85,2.86h20.3A2.86,2.86,0,0,0,72.76,57V48.52a2.85,2.85,0,0,0-2.85-2.84Zm20.3,17.77H49.61A6.48,6.48,0,0,1,43.14,57V48.52a6.48,6.48,0,0,1,6.47-6.47h20.3a6.48,6.48,0,0,1,6.47,6.47V57a6.48,6.48,0,0,1-6.47,6.48"/><path class="cls-2" d="M97,30.86a2.86,2.86,0,0,0-2.85,2.86V92.53A2.84,2.84,0,0,0,97,95.38h58.81a2.09,2.09,0,0,0,.8-.12,2,2,0,0,0-.39-.71L136.28,67.94a3.88,3.88,0,0,1,3.32-6.63h16.22a2.86,2.86,0,0,0,2.85-2.85V33.72a2.86,2.86,0,0,0-2.85-2.86ZM155.82,99H97a6.47,6.47,0,0,1-6.47-6.47V33.72A6.48,6.48,0,0,1,97,27.24h58.81a6.48,6.48,0,0,1,6.47,6.48V58.46a6.48,6.48,0,0,1-6.47,6.47H139.6a2.11,2.11,0,0,0-.81.12,2.14,2.14,0,0,0,.39.72l19.95,26.6A3.88,3.88,0,0,1,155.82,99"/><path class="cls-2" d="M64.42,39.75a2.86,2.86,0,0,0-2.85,2.85v41a2.86,2.86,0,0,0,2.85,2.85h55.84a2.86,2.86,0,0,0,2.86-2.85v-41a2.86,2.86,0,0,0-2.86-2.85h-11a2.9,2.9,0,0,0-2.89,2.87l-.15,23.26a6.52,6.52,0,0,1-6.51,6.46H85a6.52,6.52,0,0,1-6.5-6.46l-.15-23.26a2.91,2.91,0,0,0-2.89-2.87Zm55.84,50.36H64.42A6.49,6.49,0,0,1,58,83.64v-41a6.48,6.48,0,0,1,6.47-6.47h11A6.53,6.53,0,0,1,82,42.6l.15,23.26A2.89,2.89,0,0,0,85,68.71H99.68a2.89,2.89,0,0,0,2.89-2.85l.15-23.26a6.53,6.53,0,0,1,6.51-6.47h11a6.48,6.48,0,0,1,6.48,6.47v41a6.48,6.48,0,0,1-6.48,6.47"/><path class="cls-2" d="M37.76,116.78a2.86,2.86,0,0,0-2.86,2.85v47a2.87,2.87,0,0,0,2.86,2.85H87.68a2.86,2.86,0,0,0,2.86-2.85v-8.27a2.89,2.89,0,0,0-2.87-2.87l-29-.14a6.53,6.53,0,0,1-6.47-6.5v-11.4a6.49,6.49,0,0,1,6.48-6.48h29a2.86,2.86,0,0,0,2.86-2.85v-8.45a2.85,2.85,0,0,0-2.86-2.85Zm49.92,56.28H37.76a6.48,6.48,0,0,1-6.48-6.47v-47a6.49,6.49,0,0,1,6.48-6.48H87.68a6.49,6.49,0,0,1,6.48,6.48v8.45a6.48,6.48,0,0,1-6.48,6.47h-29a2.86,2.86,0,0,0-2.85,2.86v11.4a2.88,2.88,0,0,0,2.86,2.88l29,.14a6.52,6.52,0,0,1,6.47,6.49v8.27a6.48,6.48,0,0,1-6.48,6.47"/><path class="cls-1" d="M202.1,133.75h10.42V123.33H202.1V60.83H191.69v62.5c0,10.42,10.41,10.42,10.41,10.42"/><path class="cls-1" d="M295.85,60.83H285.43S275,60.83,275,71.25v62.5h10.42V71.25h10.42Z"/><path class="cls-1" d="M337.51,123.33H316.68V60.83H306.26v62.5c0,10.42,10.42,10.42,10.42,10.42h20.83s10.42,0,10.42-10.42V60.83H337.51Z"/><path class="cls-1" d="M389.59,92.08H368.76V71.25h20.83V60.83H368.76s-10.42,0-10.42,10.42V92.08c0,10.42,10.42,10.42,10.42,10.42h20.83v20.83H358.34v10.42h31.25c10.42,0,10.42-10.42,10.42-10.42V102.5c0-10.42-10.42-10.42-10.42-10.42"/><path class="cls-1" d="M470.84,123.33V102.5s0-10.42-10.42-10.42H439.59V71.25h20.83V60.83H439.59c-10.42,0-10.42,10.42-10.42,10.42V92.08s0,10.42,10.42,10.42h20.83v20.83H429.17v10.42h31.25c10.42,0,10.42-10.42,10.42-10.42"/><path class="cls-1" d="M481.26,71.25v52.08c0,10.42,10.41,10.42,10.41,10.42h10.42V123.33H491.67V71.25h10.42V60.83H491.67s-10.41,0-10.41,10.42"/><path class="cls-1" d="M575,60.83H522.92s-10.41,0-10.41,10.42v62.5h10.41V71.25h20.83v62.5h10.43V71.25H575v62.5h10.42V71.25c0-10.42-10.42-10.42-10.42-10.42"/><path class="cls-1" d="M264.6,71.25c0-10.42-10.42-10.42-10.42-10.42H233.35s-10.42,0-10.42,10.42v52.08c0,10.42,10.42,10.42,10.42,10.42h20.83s10.42,0,10.42-10.42Zm-10.42,52.08H233.35V71.25h20.83Z"/></svg>